<?xml version="1.0" standalone="no"?>
<!DOCTYPE svg PUBLIC "-//W3C//DTD SVG 20010904//EN"
 "http://www.w3.org/TR/2001/REC-SVG-20010904/DTD/svg10.dtd">
<svg version="1.0" xmlns="http://www.w3.org/2000/svg"
 width="512.000000pt" height="512.000000pt" viewBox="0 0 512.000000 512.000000"
 preserveAspectRatio="xMidYMid meet">
<metadata>
Created by potrace 1.14, written by Peter Selinger 2001-2017
</metadata>
<g transform="translate(0.000000,512.000000) scale(0.100000,-0.100000)"
fill="#000000" stroke="none">
<path d="M712 5109 c-175 -29 -320 -107 -457 -244 -141 -141 -215 -281 -244
-465 -15 -90 -15 -3590 0 -3680 29 -184 103 -324 244 -465 141 -141 281 -215
465 -244 90 -15 3590 -15 3680 0 184 29 324 103 465 244 141 141 215 281 244
465 15 90 15 3590 0 3680 -29 184 -103 324 -244 465 -141 141 -281 215 -465
244 -81 13 -3609 13 -3688 0z m2086 -824 c227 -44 443 -156 611 -319 201 -195
325 -433 367 -708 63 -410 -124 -937 -571 -1613 -168 -252 -422 -589 -602
-794 l-39 -44 -115 139 c-593 713 -966 1363 -1082 1884 -28 128 -30 367 -4
490 51 235 160 443 321 609 210 217 450 335 766 375 64 8 264 -3 348 -19z"/>
<path d="M2377 3754 c-99 -32 -217 -111 -278 -188 -85 -105 -127 -204 -144
-343 l-7 -53 156 0 156 0 0 23 c0 94 85 215 182 258 110 48 246 24 331 -59 66
-63 91 -124 92 -217 0 -58 -5 -90 -18 -117 -22 -43 -92 -113 -197 -196 -153
-120 -219 -233 -233 -399 l-4 -53 152 0 152 0 6 49 c11 93 47 144 223 316 132
129 168 171 189 217 114 251 -28 595 -300 728 -136 67 -315 80 -458 34z"/>
<path d="M2415 2065 c-4 -80 -5 -148 -3 -151 10 -9 196 -17 251 -10 l57 7 0
150 0 149 -149 0 -149 0 -7 -145z"/>
</g>
</svg>
